<svg viewBox="0 0 89 92" xmlns="http://www.w3.org/2000/svg">
	<path fill="#69d2e7" opacity="1.00" d=" M 36.56 0.00 L 52.37 0.00 C 58.28 0.62 64.10 3.24 67.88 7.93 C 71.44 12.12 73.01 17.64 73.14 23.06 C 73.54 32.10 77.20 40.63 81.75 48.32 C 83.08 50.59 84.85 52.63 85.75 55.13 C 86.51 58.29 84.05 61.36 80.96 61.87 C 74.42 63.41 67.64 62.01 61.00 62.68 C 67.55 67.02 75.43 68.82 82.23 72.72 C 86.17 75.20 88.60 79.61 89.00 84.21 L 89.00 92.00 L 0.00 92.00 L 0.00 84.25 C 0.38 79.63 2.82 75.19 6.79 72.72 C 13.58 68.80 21.46 67.02 28.00 62.68 C 21.11 61.94 14.00 63.60 7.27 61.63 C 3.71 60.83 1.88 56.18 4.12 53.24 C 8.74 46.29 12.82 38.85 14.78 30.68 C 16.34 24.86 15.28 18.51 17.99 12.98 C 21.13 5.57 28.66 0.71 36.56 0.00 Z" />
</svg>
