<svg viewBox="0 0 50 48" xmlns="http://www.w3.org/2000/svg">
	<path fill="#fa6900" opacity="1.00" d=" M 0.41 0.00 L 49.59 0.00 C 49.69 0.10 49.90 0.31 50.00 0.41 L 50.00 38.14 C 42.18 42.25 33.53 44.63 25.36 48.00 L 24.80 48.00 C 16.55 44.75 8.08 42.01 0.00 38.36 L 0.00 0.42 C 0.10 0.31 0.31 0.10 0.41 0.00 M 22.01 7.26 C 22.01 10.84 21.99 14.42 22.00 18.00 C 18.51 17.99 15.02 18.01 11.53 18.00 C 11.54 20.00 11.54 22.00 11.53 24.00 C 15.02 23.99 18.51 24.01 22.00 24.00 C 21.99 27.58 22.01 31.16 22.01 34.74 C 24.00 34.73 26.00 34.73 27.99 34.74 C 27.99 31.16 28.01 27.58 28.00 24.00 C 31.49 24.01 34.98 23.99 38.47 24.00 C 38.46 22.00 38.46 20.00 38.47 18.00 C 34.98 18.01 31.49 17.99 28.00 18.00 C 28.01 14.42 27.99 10.84 27.99 7.26 C 26.00 7.26 24.00 7.27 22.01 7.26 Z" />
	<path fill="#ffffff" opacity="1.00" d=" M 22.01 7.26 C 24.00 7.27 26.00 7.26 27.99 7.26 C 27.99 10.84 28.01 14.42 28.00 18.00 C 31.49 17.99 34.98 18.01 38.47 18.00 C 38.46 20.00 38.46 22.00 38.47 24.00 C 34.98 23.99 31.49 24.01 28.00 24.00 C 28.01 27.58 27.99 31.16 27.99 34.74 C 26.00 34.73 24.00 34.73 22.01 34.74 C 22.01 31.16 21.99 27.58 22.00 24.00 C 18.51 24.01 15.02 23.99 11.53 24.00 C 11.54 22.00 11.54 20.00 11.53 18.00 C 15.02 18.01 18.51 17.99 22.00 18.00 C 21.99 14.42 22.01 10.84 22.01 7.26 Z" />
</svg>
